<?xml version="1.0" encoding="UTF-8"?>
<!--
  iVault wordmark (outlined). Fully self-contained — no font dependency.

  - Icon: original geometric composition (squircle + V stroke + dot).
  - Wordmark glyphs: "iVault" text-to-path from Inter (SIL OFL 1.1).
    The Inter license permits embedding glyph outlines in any document
    or work, commercial or otherwise. See https://rsms.me/inter/
  - No proprietary assets referenced. Safe to distribute.
-->
<svg xmlns="http://www.w3.org/2000/svg" viewBox="0 0 1440 384" role="img" aria-label="iVault">
  <title>iVault</title>
  <desc>Horizontal lockup with outlined wordmark. Self-contained, no font dependency.</desc>

  <defs>
    <radialGradient id="iv-mark-bg" cx="50%" cy="36%" r="85%">
      <stop offset="0%"  stop-color="#272727"/>
      <stop offset="55%" stop-color="#0c0c0c"/>
      <stop offset="100%" stop-color="#000000"/>
    </radialGradient>
  </defs>

  <g>
    <rect width="384" height="384" rx="86" ry="86" fill="url(#iv-mark-bg)"/>
    <g transform="scale(0.375)">
      <g fill="none" stroke="#ffffff" stroke-width="60"
         stroke-linecap="round" stroke-linejoin="round">
        <path d="M 288 288 L 512 650 L 736 288"/>
      </g>
      <circle cx="512" cy="776" r="48" fill="#ffffff"/>
    </g>
  </g>

  <g transform="translate(448, 76)" fill="#0a0a0a">
    <path d="M38.289 232L17.898 232L17.898 105.352L38.289 105.352L38.289 232ZM28.207 84.621L28.207 84.621Q22.430 84.621 18.238 80.656Q14.047 76.691 14.047 71.141L14.047 71.141Q14.047 65.477 18.238 61.568Q22.430 57.660 28.207 57.660L28.207 57.660Q34.098 57.660 38.289 61.568Q42.480 65.477 42.480 71.141L42.480 71.141Q42.480 76.691 38.289 80.656Q34.098 84.621 28.207 84.621ZM148.965 232L124.156 232L62.078 63.211L84.734 63.211L120.418 163.352Q123.477 171.961 128.064 186.348Q132.652 200.734 138.770 221.805L138.770 221.805L134.578 221.805Q140.695 200.168 145.227 186.064Q149.758 171.961 152.703 163.352L152.703 163.352L187.480 63.211L210.363 63.211L148.965 232ZM269.609 234.945L269.609 234.945Q257.602 234.945 247.803 230.414Q238.004 225.883 232.227 217.160Q226.449 208.438 226.449 195.977L226.449 195.977Q226.449 185.102 230.754 178.305Q235.059 171.508 242.252 167.600Q249.445 163.691 258.168 161.766Q266.891 159.840 275.727 158.707L275.727 158.707Q287.055 157.234 294.191 156.441Q301.328 155.648 304.783 153.723Q308.238 151.797 308.238 147.152L308.238 147.152L308.238 146.473Q308.238 138.543 305.293 133.049Q302.348 127.555 296.457 124.609Q290.566 121.664 281.730 121.664L281.730 121.664Q272.668 121.664 266.211 124.496Q259.754 127.328 255.732 131.576Q251.711 135.824 249.672 140.242L249.672 140.242L230.074 133.785Q234.945 122.230 243.215 115.717Q251.484 109.203 261.453 106.484Q271.422 103.766 281.164 103.766L281.164 103.766Q287.508 103.766 295.607 105.295Q303.707 106.824 311.240 111.355Q318.773 115.887 323.701 124.779Q328.629 133.672 328.629 148.512L328.629 148.512L328.629 232L308.578 232L308.578 214.781L307.219 214.781Q305.066 219.199 300.309 223.900Q295.551 228.602 287.961 231.773Q280.371 234.945 269.609 234.945ZM273.121 216.934L273.121 216.934Q284.449 216.934 292.266 212.516Q300.082 208.098 304.160 201.018Q308.238 193.938 308.238 186.234L308.238 186.234L308.238 168.676Q306.992 170.148 302.801 171.338Q298.609 172.527 293.229 173.434Q287.848 174.340 282.807 174.963Q277.766 175.586 274.820 175.926L274.820 175.926Q267.457 176.832 261.057 179.041Q254.656 181.250 250.805 185.498Q246.953 189.746 246.953 196.996L246.953 196.996Q246.953 203.566 250.352 207.984Q253.750 212.402 259.641 214.668Q265.531 216.934 273.121 216.934ZM407.359 233.586L407.359 233.586Q394.559 233.586 384.873 228.318Q375.188 223.051 369.807 212.402Q364.426 201.754 364.426 185.781L364.426 185.781L364.426 105.352L384.816 105.352L384.816 184.082Q384.816 198.695 392.520 206.965Q400.223 215.234 413.477 215.234L413.477 215.234Q422.539 215.234 429.732 211.270Q436.926 207.305 441.117 199.658Q445.309 192.012 445.309 181.250L445.309 181.250L445.309 105.352L465.813 105.352L465.813 232L446.102 232L446.102 201.301L448.820 201.301Q442.930 219.086 432.111 226.336Q421.293 233.586 407.359 233.586ZM501.609 63.211L522 63.211L522 232L501.609 232L501.609 63.211ZM542.164 105.352L607.641 105.352L607.641 122.797L542.164 122.797L542.164 105.352ZM561.195 200.734L561.195 75.219L581.586 75.219L581.586 199.148Q581.586 207.645 585.041 211.553Q588.496 215.461 596.539 215.461L596.539 215.461Q598.465 215.461 601.467 215.008Q604.469 214.555 606.961 214.102L606.961 214.102L611.152 231.320Q607.980 232.453 603.959 233.020Q599.938 233.586 595.973 233.586L595.973 233.586Q579.547 233.586 570.371 224.920Q561.195 216.254 561.195 200.734L561.195 200.734Z"/>
  </g>
</svg>
